<svg aria-hidden="true" style="position: absolute; width: 0; height: 0; overflow: hidden;" version="1.1" xmlns="http://www.w3.org/2000/svg" xmlns:xlink="http://www.w3.org/1999/xlink">
<defs>
<symbol id="facebook-logo-icon" viewBox="0 0 32 32">
<path d="M20.451 15.985h-2.611v9.621h-3.956v-9.621h-1.881v-3.38h1.881v-2.188c0-1.565 0.739-4.015 3.992-4.015l2.93 0.012v3.282h-2.126c-0.348 0-0.839 0.176-0.839 0.923v1.989h2.956l-0.346 3.378z"></path>
</symbol>
<symbol id="github-logo-icon" viewBox="0 0 32 32">
<path d="M16.004 6.59c-5.171 0-9.414 4.243-9.414 9.414 0 4.412 3.096 8.421 7.207 9.414v-3.114c-0.408 0.088-0.781 0.091-1.197-0.031-0.556-0.164-1.008-0.535-1.344-1.1-0.214-0.361-0.593-0.753-0.988-0.724l-0.097-1.099c0.856-0.073 1.595 0.522 2.033 1.259 0.196 0.329 0.421 0.521 0.709 0.605 0.278 0.083 0.577 0.043 0.925-0.080 0.088-0.698 0.408-0.958 0.65-1.327-2.452-0.365-3.43-1.666-3.817-2.692-0.514-1.364-0.238-3.067 0.67-4.144 0.018-0.021 0.050-0.075 0.038-0.113-0.417-1.26 0.090-2.301 0.109-2.411 0.481 0.141 0.559-0.143 2.090 0.786l0.264 0.159c0.111 0.066 0.075 0.028 0.186 0.019 0.59-0.166 1.269-0.266 1.97-0.276l0.006-0c0.668 0.008 1.337 0.104 2.002 0.284l0.086 0.009c-0.008-0.002 0.024-0.006 0.075-0.037 1.911-1.158 1.842-0.78 2.355-0.946 0.019 0.111 0.519 1.169 0.106 2.412-0.056 0.171 1.657 1.74 0.708 4.257-0.388 1.026-1.365 2.328-3.817 2.693 0.314 0.48 0.692 0.734 0.69 1.723v3.887c4.11-0.993 7.207-5.002 7.207-9.414 0-5.171-4.243-9.414-9.414-9.414z"></path>
</symbol>
<symbol id="telegram-logo-icon" viewBox="0 0 32 32">
<path d="M12.87 18.38l-0.317 4.17c0.455 0 0.651-0.183 0.888-0.401l2.13-1.902 4.415 3.019c0.811 0.421 1.381 0.199 1.6-0.696l2.898-12.676c0.258-1.117-0.433-1.554-1.221-1.28l-17.037 6.087c-1.163 0.422-1.146 1.026-0.198 1.301l4.356 1.264 10.116-5.908c0.476-0.295 0.909-0.132 0.554 0.163l-8.184 6.858z"></path>
</symbol>
</defs>
</svg>
