<svg xmlns="http://www.w3.org/2000/svg" viewBox="0 0 512 512" style="enable-background:new 0 0 512 512" xml:space="preserve"><path style="fill:#d1f0ef" d="M173.088 215.226h178.476L287.063 512h-49.479z"/><path style="fill:#d2b4b3" d="m313.104 392.176-21.295 97.996h-58.968l-21.298-97.996z"/><path style="fill:#e4eaba" d="m319.6 362.3-18.77 86.359c-30.52-4.079-57.801-10.467-80.794-17.419L205.05 362.3H319.6z"/><path style="fill:#d2b4b3" d="m329.67 315.961-19.034 87.581c-39.539-4.526-74.064-13.06-101.415-22.048l-14.241-65.532h134.69z"/><path style="fill:#e4eaba" d="m340.617 265.592-19.193 88.307c-50.763-5.144-93.677-17.024-124.379-28.445l-13.012-59.861h156.584v-.001z"/><path style="fill:#d2b4b3" d="M173.088 215.226h178.476l-19.404 89.283c-62.578-5.029-114.167-20.616-147.077-34.087l-11.995-55.196z"/><path style="fill:#fff1ad" d="M347.821 512h-170.99v-10.914c0-6.002 4.909-10.914 10.914-10.914h149.163c6.002 0 10.914 4.911 10.914 10.914L347.821 512z"/><path style="fill:#d33b3a" d="M309.419 223.736c-49.001 21.705-163.873 28.212-155.461-23.88 8.411-52.09 212.301-21.082 155.461 23.88z"/><path style="fill:#f6e385" d="M191.771 144.985c-47.616.986-65.172 37.138-26.08 62.167 50.628 32.409 194.56 40.207 201.77 8.392 7.207-31.811-104.747-72.026-175.69-70.559z"/><path style="fill:#d33b3a" d="M216.634 108.052c-47.243-2.276-87.206 30.488-38.659 59.446 53.385 31.842 133.478-1.704 185.967 34.356 12.31-31.321-76.92-90.415-147.308-93.802z"/><path style="fill:#f6e385" d="M352.165 169.853c-50.15-41.207-97.237-21.183-141.988-39.08s-27.599-49.412-4.185-55.784c23.414-6.373-18.404-35.582 41.765-74.417 5.471 32.46 11.57 74.535 49.869 89.684s64.227 51.96 54.539 79.597z"/><path style="fill:#d33b3a" d="M206.363 61.503c-3.024-11.998.236-35.505 32.508-58.087 5.296-3.702 13.558-5.933 14.332 1.606 3.151 30.645 10.209 71.705 44.419 85.234 9.993 3.954 19.197 9.656 27.125 16.44-28.65-18.661-110.596-14.318-118.384-45.193z"/><path style="fill:none;stroke:#e66363;stroke-width:2.4;stroke-linecap:round;stroke-linejoin:round;stroke-miterlimit:22.926" d="M237.954 16.106c-5.808 3.452-13.173 12.815-17.036 23.883"/><path style="fill:none;stroke:#fff1ad;stroke-width:2.4;stroke-linecap:round;stroke-linejoin:round;stroke-miterlimit:22.926" d="M205.812 84.054c-6.539.536-15.483 11.567-15.392 21.58"/><path style="fill:none;stroke:#e66363;stroke-width:2.4;stroke-linecap:round;stroke-linejoin:round;stroke-miterlimit:22.926" d="M178.182 126.184c-4.998.409-11.832 8.839-11.762 16.488"/><path style="fill:none;stroke:#fff1ad;stroke-width:2.4;stroke-linecap:round;stroke-linejoin:round;stroke-miterlimit:22.926" d="M159.867 163.786c-5.188 1.887-11.43 10.89-11.339 20.902"/></svg>