<svg xmlns="http://www.w3.org/2000/svg" viewBox="0 0 180 180"><path d="M179 89A89 89 0 1 1 90 0a89 89 0 0 1 89 89Z" style="fill:#1a910d"/><path d="M28.73 111.74c2.11-15.16 39.69-35.1 65.35-32.22s49.65 19.75 55.79 32.22-2.87 57.37-2.87 57.37H38.77S25.07 138 28.73 111.74Z" style="fill:#161515"/><path d="M50.1 78.93s-3.08-5.56 4-14.2 41.28-16.31 58.9-3.26 19.87 13.33 18.8 17.46-27.63 21.87-29.55 29.65-10.93 21-11.54 21-8-15.35-14-23.41S50.1 78.93 50.1 78.93Z" style="fill:#161515"/><path d="M63 58.21c-.38 5.18 4.8 23 10.36 30.7S87.12 101.38 92 101.77s12.53-5.32 17.71-15.49 9.28-29 9.28-29Z" style="fill:#ffb18f"/><path d="M118.57 59.05a11 11 0 0 0-1.66-1.76l-54 .92c-.29 4 2.7 15.44 6.62 24 6.15-2 12.38-4.22 16-5.86 3.47-1.54 1.47-4.9 4.59-5.48s2.57 5.18 5.26 5.95c1.91.55 10.39 3.72 16 5.85 3.43-8.26 6.18-19.33 7.19-23.62Z" style="fill:#db826a"/><path d="M50.7 76.92S60.26 66 88 66.17s41.3 11.29 41.3 11.29-24.42-9.27-43.14-8.6c-15.94.57-35.46 8.06-35.46 8.06Z" style="fill:#bc1111"/><path d="M46.83 78.74c-.66-.18 11.9-42 28.48-53.6 9.49-6.63 27.17-6.46 35.8.84 11.31 9.55 23.79 52.38 23.22 53.72s-14.86-11.14-44.21-11.9C60.19 67 48.94 79.32 46.83 78.74Z" style="fill:#353535"/><path d="M46.83 78.74s1.42-2.86 3-2.21c11.08 4.61 35.29 27.05 39 39.22 4.8 15.73 2.71 25 2.71 25s-7.48-20.33-18.61-34.53c-8.88-11.37-26.1-27.48-26.1-27.48Z" style="fill:#353535"/><path d="M134.33 79.7s-2-3.94-3.26-3.26c-10.34 5.6-34.82 27.27-38.52 39.4-4.8 15.73-1 24.87-1 24.87s5.6-19.6 16.73-33.8c8.87-11.33 26.05-27.21 26.05-27.21Z" style="fill:#353535"/><path d="M86.17 80.69a19.59 19.59 0 0 1 3.73-1.82c.9-.21 4.62 2.2 4.14 2.49s-8.25.01-7.87-.67Z" style="fill:#db826a"/><path d="M83.61 89c-.2-.52 3.29.87 7.43.74a28.24 28.24 0 0 0 7-1.38c-.42.23-4.51 2.09-6.9 2.28s-6.93-.19-7.53-1.64Z" style="fill:#7c4639"/><path d="M82.71 87.24c.87.5-1.62 1.92-.57 3.17 1.29 1.52 2.68.67 2.68 1s-1.95 1.28-3.64-1c-1.01-1.41.38-3.84 1.53-3.17Z" style="fill:#db826a"/><path d="M92.5 24.3c-10.37 0-19.36 33.83-21.52 45a87.73 87.73 0 0 1 19.14-1.5 96.15 96.15 0 0 1 20.44 2.67c-1.8-11.87-4.14-46.17-18.06-46.17Z" style="fill:#444"/><path d="M90.74 138.65a60.66 60.66 0 0 0-15.51-34.2 83.5 83.5 0 0 0-17.36-14.91 216.09 216.09 0 0 1 15.06 16.64c8.99 11.47 15.6 26.94 17.81 32.47Z" style="fill:#bc1111"/><path d="M35.78 100.33c-13 10.25-28.28 49.4-30.58 62.07s40.91 17.2 48.78 13-4.46-57.11-9.07-63.25-6.45-13.94-9.13-11.82Z" style="fill:#353535"/><path d="M108.27 106.91A197.75 197.75 0 0 1 122 91.66a90.67 90.67 0 0 0-14.16 12.79 60.49 60.49 0 0 0-15.4 33.3c2.06-6.01 7.33-20 15.83-30.84Z" style="fill:#474747"/><path d="M39.54 123.06s-4.8 13.63-7.86 16.5-8.64.77-12.09 3.27-4 10-4 10 7.7-5.75 15.26-2.88S44 147.24 44 147.24Z" style="fill:#232323"/><path d="M40.31 153.34s-11-2.84-15.45 1.19a8.87 8.87 0 0 0-3.11 6.34 16.06 16.06 0 0 1 6-4.25c5-1.72 16.12 5.15 11.62-.55Z" style="fill:#2b2b2b"/><path d="M140.85 100.33c13 10.25 28.28 49.4 30.58 62.07s-40.91 17.2-48.78 13 4.46-57.11 9.07-63.25 6.45-13.94 9.13-11.82Z" style="fill:#353535"/><path d="M137.09 123.06s4.8 13.63 7.87 16.5 8.63.77 12.08 3.27 4 10 4 10-7.7-5.75-15.26-2.88-13.13-2.68-13.13-2.68Z" style="fill:#232323"/><path d="M136.32 153.34s11-2.84 15.45 1.19a8.87 8.87 0 0 1 3.11 6.34 16.06 16.06 0 0 0-6-4.25c-5-1.72-16.12 5.15-11.62-.55ZM155.73 138.65s-1.8-4.94-5.26-6.28a50 50 0 0 1-8.39-4.89s1.83 8.93 3.73 9.59a34.9 34.9 0 0 0 9.92 1.58Z" style="fill:#2b2b2b"/><path style="fill:#aaa" d="M38.39 114.24h108.22v62.74H38.39z"/><path style="fill:#8c8c8c" d="M38.39 176.91h108.22V180H38.39z"/><path style="fill:#cecece" d="M57.81 176.07h11.51v1.07H57.81zM115.68 176.07h11.51v1.07h-11.51zM38.39 114.38h108.22v1.46H38.39z"/><path d="M20.9 138.65s1.8-4.94 5.26-6.28a50 50 0 0 0 8.39-4.89s-1.83 8.93-3.73 9.59a34.9 34.9 0 0 1-9.92 1.58Z" style="fill:#2b2b2b"/><path d="M53.88 145.53a1.13 1.13 0 0 1-.59.47 1.14 1.14 0 0 1 .59.48 1.84 1.84 0 0 1 .2 1v5.21c0 1 .48 1.56 1.46 1.56h.56v.75h-.62a2.07 2.07 0 0 1-2.37-2.32v-5.3c0-.67-.29-1-.87-1h-.67v-.83h.67c.58 0 .87-.33.87-1v-5.31a2.07 2.07 0 0 1 2.37-2.24h.62v.83h-.56c-1 0-1.46.52-1.46 1.56v5.21a1.84 1.84 0 0 1-.2.93ZM59.62 150.87a5.44 5.44 0 0 1-2.09-1.32l.44-.73a5.24 5.24 0 0 0 1.92 1.18 6.79 6.79 0 0 0 2.54.48 4.84 4.84 0 0 0 2.91-.74 2.26 2.26 0 0 0 1-1.9 2 2 0 0 0-.52-1.45 3.46 3.46 0 0 0-1.29-.83 19.81 19.81 0 0 0-2.08-.6 20.18 20.18 0 0 1-2.39-.71 3.87 3.87 0 0 1-1.52-1.07 2.85 2.85 0 0 1-.63-1.94 3.24 3.24 0 0 1 .53-1.8 3.51 3.51 0 0 1 1.56-1.27 6.51 6.51 0 0 1 2.67-.48 7.57 7.57 0 0 1 2.2.33 6.75 6.75 0 0 1 1.87.89l-.37.79a6.35 6.35 0 0 0-1.78-.85 6.83 6.83 0 0 0-1.92-.29 4.56 4.56 0 0 0-2.84.75 2.36 2.36 0 0 0-1 1.95 2 2 0 0 0 .52 1.45 3.59 3.59 0 0 0 1.29.83 21.11 21.11 0 0 0 2.1.61 20.78 20.78 0 0 1 2.37.72 3.85 3.85 0 0 1 1.52 1 2.74 2.74 0 0 1 .62 1.9 3.16 3.16 0 0 1-.53 1.79 3.56 3.56 0 0 1-1.62 1.29 6.79 6.79 0 0 1-2.7.48 7.89 7.89 0 0 1-2.78-.46ZM70 151.12a.78.78 0 0 1-.24-.58.75.75 0 0 1 .24-.54.82.82 0 0 1 1.14 0 .75.75 0 0 1 .24.58.78.78 0 0 1-.24.58.77.77 0 0 1-1.14 0ZM92.24 137.79l-4.57 13.5h-1l-4.19-12.11-4.2 12.11h-1l-4.59-13.5h1l4.11 12.15 4.2-12.15h.94L87.13 150l4.14-12.17ZM93.67 151.12a.78.78 0 0 1-.24-.58.75.75 0 0 1 .24-.58.8.8 0 0 1 .57-.23.77.77 0 0 1 .57.23.75.75 0 0 1 .24.58.78.78 0 0 1-.24.58.75.75 0 0 1-.57.25.78.78 0 0 1-.57-.25ZM107.53 147.49H99.7l-1.7 3.8h-1.08l6.21-13.5h1l6.21 13.5h-1.06Zm-.37-.83-3.54-7.79-3.53 7.79ZM112.44 151.12a.78.78 0 0 1-.24-.58.75.75 0 0 1 .24-.58.77.77 0 0 1 .57-.23.8.8 0 0 1 .57.23.75.75 0 0 1 .24.58.84.84 0 0 1-.81.83.75.75 0 0 1-.57-.25ZM119.27 138.68h-4.86v-.89h10.71v.89h-4.86v12.61h-1ZM126 151.12a.76.76 0 0 1-.25-.58.73.73 0 0 1 .25-.54.81.81 0 0 1 1.13 0 .75.75 0 0 1 .24.58.78.78 0 0 1-.24.58.76.76 0 0 1-1.13 0ZM133.43 145.58v.83h-.68c-.56 0-.85.33-.85 1v5.3a2.08 2.08 0 0 1-2.39 2.32h-.61v-.83h.56c1 0 1.48-.52 1.48-1.56v-5.21a2 2 0 0 1 .18-1 1.15 1.15 0 0 1 .61-.48 1.14 1.14 0 0 1-.61-.47 2 2 0 0 1-.18-.95v-5.21c0-1-.5-1.56-1.48-1.56h-.56V137h.61c1.6 0 2.39.77 2.39 2.31v5.31c0 .65.29 1 .85 1Z" style="fill:#161515"/></svg>